# xmcd
#
# Track frame offsets:
#	150
#	13158
#	26904
#	41749
#	52363
#	60739
#	75815
#	86758
#	102135
#	116177
#	130790
#	147559
#	158541
#	166594
#	181533
#	194713
#	208625
#	216339
#
# Disc length: 2985 seconds
#
# Revision: 0
# Processed by: cddbd v1.4PL0 Copyright (c) Steve Scherf et al.
# Submitted via: audiograbber 1.82.00
#
DISCID=fe0ba712
DTITLE=Billie Holiday - Night and Day
DYEAR=1900
DGENRE=
TTITLE0=My Man
TTITLE1=Georgia On My Mind
TTITLE2=Love Man
TTITLE3=Ain't Nobody's Business
TTITLE4=Miss Brown
TTITLE5=Don't Be Late
TTITLE6=Lover Come Back To Me
TTITLE7=They Can't Take That Away Frome Me
TTITLE8=More Than You Know
TTITLE9=If You Were Mine
TTITLE10=Do Nothing Til You Hear From Me
TTITLE11=Detour Ahead
TTITLE12=I'll Get By
TTITLE13=Loveless Love
TTITLE14=Billies Blues
TTITLE15=He's Funny That Way
TTITLE16=All Of Me
TTITLE17=Them There Eyes
EXTD=
EXTT0=
EXTT1=
EXTT2=
EXTT3=
EXTT4=
EXTT5=
EXTT6=
EXTT7=
EXTT8=
EXTT9=
EXTT10=
EXTT11=
EXTT12=
EXTT13=
EXTT14=
EXTT15=
EXTT16=
EXTT17=
PLAYORDER=
